<?xml version="1.0" standalone="no"?>
<!DOCTYPE svg PUBLIC "-//W3C//DTD SVG 20010904//EN"
 "http://www.w3.org/TR/2001/REC-SVG-20010904/DTD/svg10.dtd">
<svg version="1.0" xmlns="http://www.w3.org/2000/svg"
 width="393.000000pt" height="106.000000pt" viewBox="0 0 393.000000 106.000000"
 preserveAspectRatio="xMidYMid meet">

<g transform="translate(0.000000,106.000000) scale(0.100000,-0.100000)"
fill="#000000" stroke="none">
<path d="M1892 979 c-71 -35 -147 -157 -212 -337 -22 -60 -25 -63 -49 -56 -14
4 -58 8 -97 8 -52 1 -77 6 -90 18 -11 9 -31 21 -47 27 -29 11 -33 25 -16 68
18 49 13 129 -13 176 -18 32 -33 45 -64 56 -37 13 -44 12 -79 -5 -55 -27 -92
-79 -130 -181 l-33 -88 -45 -11 c-25 -7 -58 -21 -74 -31 -15 -11 -44 -30 -64
-44 -20 -13 -67 -61 -103 -106 -37 -46 -83 -92 -104 -102 -20 -11 -57 -34 -82
-51 -92 -62 -257 -92 -293 -52 -34 37 -11 93 46 111 17 5 62 13 100 17 58 5
71 10 92 36 54 63 21 143 -72 178 -80 30 -103 46 -103 75 0 33 27 45 104 45
100 0 136 -19 136 -70 0 -102 139 -86 171 19 23 76 -35 168 -134 212 -45 21
-67 24 -167 24 -98 0 -122 -4 -165 -23 -93 -43 -154 -124 -155 -206 0 -21 12
-65 26 -97 l27 -59 -46 -40 c-68 -60 -90 -114 -85 -205 3 -62 8 -80 33 -117
87 -124 297 -144 503 -48 l63 30 50 -26 c45 -24 58 -26 127 -22 43 3 104 15
137 27 96 36 101 36 135 8 55 -47 104 -46 226 4 28 11 37 9 84 -14 67 -33 123
-35 207 -5 l63 22 44 -22 c52 -26 77 -27 140 -6 45 16 51 15 101 -2 48 -16 59
-16 109 -4 44 10 64 11 95 2 52 -16 85 -15 129 4 34 14 41 14 89 -2 45 -15 58
-16 105 -5 45 11 58 10 90 -3 21 -9 50 -16 65 -16 35 0 90 32 125 73 l26 32
46 -23 c31 -14 65 -22 100 -22 40 0 57 -5 71 -20 10 -11 35 -25 55 -31 30 -9
43 -8 68 5 45 23 55 42 117 226 81 238 165 408 165 333 0 -10 -12 -61 -27
-113 -31 -110 -38 -267 -14 -333 29 -82 101 -137 181 -137 85 0 226 81 264
152 32 59 0 148 -53 148 -10 0 -48 -23 -84 -51 -75 -57 -105 -61 -121 -16 -7
20 -4 67 14 175 42 266 39 341 -19 396 -61 58 -161 42 -241 -39 -24 -25 -47
-45 -51 -45 -4 0 -19 20 -33 44 -27 47 -75 76 -124 76 -36 0 -170 -60 -194
-87 -10 -10 -56 -93 -103 -183 -92 -175 -103 -193 -115 -185 -4 3 -11 71 -14
152 -4 82 -12 163 -17 180 -30 97 -166 78 -185 -24 -4 -20 -4 -70 -1 -113 7
-104 3 -108 -72 -80 -72 27 -107 23 -175 -21 -27 -16 -51 -28 -54 -25 -2 3 8
34 23 68 42 96 54 135 65 205 13 81 1 132 -41 167 -39 33 -70 33 -136 -1 l-53
-26 -38 26 c-46 33 -74 34 -130 6z m346 -47 c6 -9 12 -24 12 -34 0 -15 -8 -18
-45 -18 -25 0 -45 -5 -45 -11 0 -5 -4 -8 -9 -5 -5 4 -11 1 -13 -6 -2 -6 -14
-13 -26 -14 -12 -2 -27 -5 -33 -6 -25 -6 -19 22 13 58 54 61 114 76 146 36z
m-234 -4 c9 -12 16 -42 16 -65 0 -45 -17 -63 -59 -63 -17 0 -21 6 -21 30 0 42
-24 39 -54 -8 -19 -31 -31 -39 -55 -40 -39 -1 -39 12 0 71 60 92 138 125 173
75z m-682 -52 c17 -21 32 -65 25 -72 -2 -3 -34 0 -70 5 -36 5 -76 7 -88 4 -24
-7 -23 -3 14 50 35 50 85 56 119 13z m1840 -6 c36 -10 58 -34 58 -62 0 -10
-20 -12 -87 -10 -116 3 -161 11 -142 23 8 5 24 9 35 9 12 0 28 7 35 16 11 14
42 31 59 33 3 1 22 -4 42 -9z m396 -26 c12 -14 22 -34 22 -45 0 -17 -6 -19
-57 -17 -32 2 -60 6 -63 10 -3 4 -25 9 -48 10 -23 2 -41 7 -39 12 6 18 54 48
88 56 45 10 69 4 97 -26z m-3120 14 c-4 -11 -26 -18 -65 -20 -13 0 -20 -5 -17
-10 3 -5 0 -8 -7 -7 -8 1 -27 -3 -43 -10 -47 -19 -67 -8 -26 14 75 42 167 61
158 33z m279 -182 c-3 -6 -10 -10 -16 -8 -7 1 -10 -2 -6 -8 7 -11 -41 -37 -51
-27 -12 12 8 47 27 47 10 0 19 4 19 10 0 5 7 7 15 3 9 -3 14 -11 12 -17z
m1473 4 c13 -8 1 -37 -70 -178 l-85 -169 -53 26 -53 26 5 95 c2 52 7 104 11
115 3 11 -8 -7 -25 -40 -18 -33 -43 -79 -56 -102 -24 -42 -26 -42 -48 -28 -13
9 -37 17 -55 18 -22 1 -31 7 -31 20 0 9 -7 17 -16 17 -14 0 -16 8 -10 55 3 30
13 73 22 95 13 33 21 40 43 40 21 0 23 -2 11 -11 -12 -8 -10 -9 7 -4 30 8 35
-6 22 -64 -6 -27 -9 -63 -7 -78 3 -25 7 -22 38 40 28 55 39 67 60 68 22 2 23
2 3 6 -14 3 -20 9 -16 18 3 11 10 12 22 5 12 -6 22 -5 29 2 8 8 15 8 27 -2 14
-11 17 -10 22 8 3 14 13 22 26 22 16 0 18 -3 9 -12 -18 -18 -15 -28 9 -28 16
0 19 -4 14 -17 -11 -29 -19 -137 -9 -130 5 3 27 42 49 86 28 59 43 80 55 76 8
-2 22 0 30 6 12 8 12 9 -4 7 -10 -2 -21 3 -23 10 -5 14 25 16 47 2z m1037 -7
c-3 -10 -8 -36 -12 -58 -10 -59 -20 -73 -49 -68 -31 6 -39 29 -31 87 7 46 14
51 73 55 18 1 22 -3 19 -16z m116 11 c13 -4 10 -18 -15 -80 -25 -62 -34 -74
-53 -74 -48 0 -55 8 -40 48 37 106 58 126 108 106z m-3016 -66 c9 -10 45 -27
80 -38 35 -11 72 -24 82 -30 24 -12 36 -62 21 -89 -9 -18 -20 -21 -84 -21 -63
0 -83 -5 -130 -30 -57 -30 -102 -32 -133 -8 -32 26 59 93 140 104 47 7 66 24
27 24 -41 0 -109 49 -114 82 -1 7 -6 19 -10 27 -7 11 -5 13 6 8 9 -3 20 -1 26
5 8 8 16 7 27 -2 14 -11 17 -10 22 10 l6 24 9 -25 c5 -13 16 -32 25 -41z m959
53 c22 18 27 4 10 -30 -9 -16 -16 -32 -16 -36 0 -3 29 -5 65 -5 50 0 67 -4 72
-15 8 -22 3 -24 -50 -26 -26 -1 -47 -5 -47 -8 0 -3 -13 -7 -28 -8 -15 -1 -41
-7 -57 -14 -17 -7 -36 -11 -42 -10 -7 1 -13 -3 -13 -9 0 -5 -3 -9 -7 -8 -5 1
-21 -4 -36 -10 -46 -19 -53 -16 -49 22 4 35 4 35 -80 49 -51 9 -21 22 38 18
12 -1 24 5 28 14 4 11 13 14 33 9 23 -5 26 -4 16 7 -18 19 -16 29 6 29 30 0
51 -11 51 -26 0 -23 20 -16 50 16 15 17 26 30 23 30 -2 0 -1 5 3 12 6 9 9 9
12 0 3 -10 7 -10 18 -1z m544 -1 c0 -5 -4 -10 -10 -10 -5 0 -10 5 -10 10 0 6
5 10 10 10 6 0 10 -4 10 -10z m1154 -1 c4 6 15 11 26 11 16 0 14 -8 -17 -71
-34 -68 -65 -96 -100 -90 -7 1 -13 -3 -13 -9 0 -5 -3 -9 -7 -8 -5 1 -21 -4
-37 -11 -16 -6 -30 -10 -32 -9 -1 2 18 40 43 86 42 78 46 82 79 82 19 0 33 3
33 8 -3 18 2 26 10 13 6 -9 11 -10 15 -2z m546 1 c0 -5 -4 -10 -10 -10 -5 0
-10 5 -10 10 0 6 5 10 10 10 6 0 10 -4 10 -10z m-2363 -6 c-3 -3 -12 -4 -19
-1 -8 3 -5 6 6 6 11 1 17 -2 13 -5z m1423 -14 c0 -5 -4 -10 -10 -10 -5 0 -10
5 -10 10 0 6 5 10 10 10 6 0 10 -4 10 -10z m979 -6 c2 -2 -4 -55 -14 -119 -17
-113 -17 -114 -38 -100 -12 8 -28 15 -37 15 -42 1 -43 14 -14 118 l28 100 35
-5 c20 -3 38 -7 40 -9z m-509 -174 c-25 -122 -32 -138 -67 -146 -32 -8 -57 6
-61 34 -3 20 83 202 122 257 l21 30 3 -36 c2 -20 -6 -82 -18 -139z m-450 146
c0 -3 -4 -8 -10 -11 -5 -3 -10 -1 -10 4 0 6 5 11 10 11 6 0 10 -2 10 -4z m41
-46 c5 0 9 -30 9 -66 0 -53 -3 -65 -14 -61 -8 3 -17 1 -20 -6 -3 -9 -8 -8 -15
3 -7 10 -11 11 -11 3 0 -9 -7 -7 -20 4 -16 14 -20 30 -20 73 l0 56 34 -1 c19
-1 35 1 34 4 -2 21 6 32 9 14 2 -13 9 -23 14 -23z m-192 -50 c18 0 21 -6 21
-43 0 -37 -4 -46 -26 -55 -18 -9 -31 -9 -46 -1 -15 8 -19 8 -14 0 4 -6 2 -11
-5 -11 -8 0 -10 11 -6 35 5 29 3 35 -13 35 -25 0 -75 -51 -106 -109 -14 -25
-23 -38 -20 -29 3 12 1 15 -9 11 -8 -3 -12 -10 -9 -15 4 -6 -2 -8 -15 -3 -13
4 -28 1 -36 -5 -12 -10 -15 -9 -15 9 0 62 106 193 167 207 15 3 33 7 38 9 6 1
24 -6 41 -16 17 -11 41 -19 53 -19z m-1473 16 c7 -17 0 -31 -39 -76 -23 -27
-30 -31 -38 -19 -7 12 -9 12 -9 -1 0 -13 -1 -13 -11 0 -7 10 -12 11 -15 4 -3
-6 -16 -9 -29 -6 -25 4 -25 5 -7 34 27 48 69 78 108 78 21 0 37 -6 40 -14z
m624 4 c13 -9 13 -10 0 -11 -27 -2 -63 3 -84 11 -16 7 -11 9 24 9 25 0 52 -4
60 -9z m35 -30 c3 -5 1 -10 -4 -10 -6 0 -11 5 -11 10 0 6 2 10 4 10 3 0 8 -4
11 -10z m-297 -29 c11 -7 10 -21 -7 -78 -12 -38 -29 -77 -38 -85 -50 -43 -83
-22 -83 52 0 62 14 98 42 110 29 11 69 12 86 1z m-317 -117 c-14 -32 -28 -23
-37 21 -4 26 -1 43 12 63 l18 27 10 -43 c6 -29 5 -50 -3 -68z m439 97 c0 -12
-20 -25 -27 -18 -7 7 6 27 18 27 5 0 9 -4 9 -9z m1700 0 c0 -12 -20 -25 -27
-18 -7 7 6 27 18 27 5 0 9 -4 9 -9z m-1736 -37 c9 -3 16 -11 16 -16 0 -6 -7
-8 -15 -4 -8 3 -15 1 -15 -4 0 -6 11 -10 25 -10 20 0 25 -5 25 -26 0 -23 3
-25 23 -19 12 4 33 6 47 5 14 -1 33 -3 43 -3 18 -1 18 -2 0 -15 -10 -8 -37
-23 -60 -34 -47 -21 -53 -32 -24 -48 34 -18 86 -11 144 18 31 16 54 25 51 20
-3 -4 -1 -8 5 -8 6 0 7 15 4 36 -6 35 -5 36 18 29 42 -13 59 -34 49 -60 -6
-16 -5 -25 3 -29 7 -4 2 -4 -11 -2 -18 3 -22 0 -20 -12 3 -12 13 -16 33 -15
16 1 34 -2 41 -8 8 -6 21 -6 40 1 20 8 30 8 32 1 2 -6 20 -11 40 -12 l37 -1
-42 -19 c-24 -11 -46 -20 -50 -20 -5 0 -13 -5 -20 -10 -24 -21 -75 -13 -99 14
-12 14 -24 31 -26 37 -2 8 -21 1 -52 -18 -97 -62 -200 -62 -258 0 l-28 30 -71
-37 c-108 -56 -160 -49 -198 27 -11 24 -21 38 -21 31 0 -6 -25 -24 -55 -39
-55 -27 -112 -30 -170 -9 -17 6 -17 5 -5 -5 15 -12 5 -11 -65 6 -16 4 -25 2
-25 -6 0 -6 -4 -8 -10 -5 -5 3 -19 1 -30 -5 -18 -10 -22 -7 -33 19 l-13 31
-51 -35 c-80 -54 -185 -85 -287 -85 -47 0 -86 3 -86 8 1 12 70 43 70 31 0 -7
11 -9 27 -6 15 3 35 1 44 -4 12 -6 21 -4 29 6 7 8 16 12 21 9 5 -3 9 2 9 10 0
11 -10 16 -32 16 -49 0 -19 22 31 24 29 0 41 5 41 15 0 11 3 12 12 3 9 -9 14
-7 24 6 8 10 13 12 14 5 0 -23 20 -14 20 10 1 19 2 20 13 6 10 -14 14 -14 25
-3 7 8 10 14 6 14 -4 0 1 9 12 21 11 12 26 18 37 15 11 -3 26 2 35 10 8 8 27
18 43 21 18 3 26 10 22 17 -4 6 0 6 9 -2 13 -10 17 -10 22 4 4 9 9 14 13 11 3
-4 -13 -27 -36 -52 -22 -24 -41 -49 -41 -54 0 -16 43 -41 71 -41 36 0 51 21
57 80 l5 50 36 -3 c35 -2 36 -4 39 -45 2 -23 6 -42 8 -42 3 0 35 13 70 30 48
22 64 34 64 50 0 18 8 24 27 18 5 -2 7 -7 5 -12 -2 -5 4 -4 12 3 21 17 36 5
36 -27 0 -68 55 -90 135 -53 51 23 60 34 75 98 7 33 16 50 23 46 6 -4 8 0 4
10 -7 18 1 21 27 11z m1700 0 c9 -3 16 -11 16 -16 0 -6 -7 -8 -15 -4 -8 3 -15
1 -15 -4 0 -6 26 -10 59 -10 57 0 58 0 53 -26 -2 -14 -11 -28 -19 -31 -9 -3
-11 -8 -5 -12 11 -7 -28 -142 -48 -166 -31 -37 -100 -5 -100 47 0 28 0 28 -29
13 -51 -26 -123 -24 -160 4 -18 14 -26 32 -31 70 -4 29 -3 54 2 57 5 3 26 -12
47 -35 33 -36 43 -41 81 -41 55 0 105 36 115 82 4 18 12 38 17 45 5 7 7 17 3
23 -7 11 5 13 29 4z m56 -9 c0 -8 -4 -15 -8 -15 -5 0 -9 7 -9 15 0 8 4 15 9
15 4 0 8 -7 8 -15z m35 5 c3 -6 -1 -7 -9 -4 -18 7 -21 14 -7 14 6 0 13 -4 16
-10z m-2060 -40 c-3 -5 -10 -10 -16 -10 -5 0 -9 5 -9 10 0 6 7 10 16 10 8 0
12 -4 9 -10z m1705 0 c-19 -13 -30 -13 -30 0 0 6 10 10 23 10 18 0 19 -2 7
-10z m-1975 -10 c3 -5 1 -10 -4 -10 -6 0 -11 5 -11 10 0 6 2 10 4 10 3 0 8 -4
11 -10z m1700 0 c3 -5 1 -10 -4 -10 -6 0 -11 5 -11 10 0 6 2 10 4 10 3 0 8 -4
11 -10z m-1645 -10 c0 -5 -10 -10 -22 -10 -19 0 -20 2 -8 10 19 13 30 13 30 0z
m1700 0 c0 -5 -10 -10 -22 -10 -19 0 -20 2 -8 10 19 13 30 13 30 0z m171 -38
c-11 -38 -38 -90 -67 -128 -25 -35 -72 -50 -81 -28 -3 8 -17 14 -32 14 -15 0
-36 7 -48 15 -15 11 -24 12 -29 4 -4 -7 -21 -9 -45 -5 -22 3 -39 2 -39 -2 0
-5 -13 -8 -30 -7 -16 1 -27 -2 -24 -6 2 -4 0 -10 -5 -14 -6 -3 -18 6 -27 20
l-16 25 -29 -25 c-40 -33 -92 -46 -129 -33 -17 5 -27 14 -24 19 6 10 -15 13
-61 10 -23 -2 -27 0 -18 9 6 7 30 13 52 14 28 0 41 5 41 15 0 11 3 11 15 1 8
-7 15 -8 15 -3 0 6 17 10 37 9 34 -1 40 3 58 37 16 31 24 37 43 32 20 -5 32 8
15 18 -5 2 -2 2 5 0 7 -1 22 2 32 7 17 9 19 6 22 -32 2 -35 7 -44 25 -46 26
-4 106 64 99 84 -4 9 8 12 45 11 l49 -1 0 -44 c0 -37 2 -42 14 -33 8 6 19 25
26 41 7 17 17 27 23 23 6 -4 8 0 4 10 -5 13 2 17 36 19 55 4 57 3 48 -30z
m640 2 c13 -12 16 -22 9 -39 -6 -16 -5 -25 3 -29 7 -2 5 -5 -4 -5 -9 -1 -22 6
-30 15 -10 13 -10 17 2 24 11 7 11 12 1 22 -27 27 -10 38 19 12z m-1659 -39
c3 -13 1 -22 -3 -19 -9 5 -13 44 -5 44 2 0 6 -11 8 -25z m1738 -7 c0 -5 -6 -8
-12 -8 -9 0 -8 -4 2 -10 20 -13 4 -13 -21 0 -10 6 -19 19 -19 29 0 17 3 18 25
8 14 -7 25 -15 25 -19z m267 16 c-3 -3 -12 -4 -19 -1 -8 3 -5 6 6 6 11 1 17
-2 13 -5z m-3667 -14 c0 -5 -7 -10 -15 -10 -8 0 -15 5 -15 10 0 6 7 10 15 10
8 0 15 -4 15 -10z m28 -27 c-10 -2 -26 -2 -35 0 -10 3 -2 5 17 5 19 0 27 -2
18 -5z m22 -33 c0 -5 13 -10 29 -10 36 0 61 -9 61 -22 0 -5 -13 -7 -30 -3 -25
6 -29 4 -24 -10 4 -9 13 -14 20 -11 7 3 16 1 19 -5 4 -5 -1 -12 -9 -15 -9 -3
-13 -10 -10 -15 11 -19 -16 -7 -58 24 -59 45 -61 67 -5 76 4 0 7 -3 7 -9z
m3323 4 c4 -4 34 -8 67 -10 70 -3 100 -11 100 -25 0 -7 -12 -8 -30 -4 -25 5
-29 4 -24 -9 4 -9 12 -15 19 -14 8 2 14 -1 15 -7 3 -18 -86 -34 -125 -24 -29
8 -85 62 -85 82 0 11 53 20 63 11z"/>
<path d="M1710 335 c1 -17 29 -49 37 -41 4 3 -3 16 -15 29 -12 12 -22 17 -22
12z"/>
<path d="M3178 353 c7 -3 16 -2 19 1 4 3 -2 6 -13 5 -11 0 -14 -3 -6 -6z"/>
<path d="M2760 324 c0 -8 5 -12 10 -9 6 3 10 10 10 16 0 5 -4 9 -10 9 -5 0
-10 -7 -10 -16z"/>
</g>
</svg>
